# xmcd
#
# Track frame offsets: 
#        150
#        22187
#        54430
#        78667
#        93805
#        105655
#        123615
#        149567
#        157850
#        175487
#        192975
#        213681
#        228755
#        247300
#        265522
#        289661
#        316727
#        332481
#
# Disc length: 4536 seconds
#
# Revision: 4
# Processed by: cddbd v1.5.2PL0 Copyright (c) Steve Scherf et al.
# Submitted via: ExactAudioCopy v1.1
#
DISCID=0211b612
DTITLE=Adiemus - Adiemus New Best and Live Disc 1
DYEAR=2002
DGENRE=New Age
TTITLE0=Beyond The Century
TTITLE1=Immrama
TTITLE2=Adiemus (Full Version)
TTITLE3=Cantilena
TTITLE4=Hymn
TTITLE5=Kayama (Radio Edit)
TTITLE6=Chorale VI - Cantus - Song Of Aeolus
TTITLE7=Chorale I (Za Ma Ba)
TTITLE8=Cantus - Song Of Tears (Edit)
TTITLE9=Rain Dance (Edit)
TTITLE10=Zarabanda (Saraband)
TTITLE11=La La La Koora (Landler)
TTITLE12=Elegia
TTITLE13=The Eternal Knot
TTITLE14=The Wooing of Etain
TTITLE15=King Of The Sacred Grove
TTITLE16=Children Of Dannu
TTITLE17=Hermit Of The Sea Rock
EXTD=
EXTT0=
EXTT1=
EXTT2=
EXTT3=
EXTT4=
EXTT5=
EXTT6=
EXTT7=
EXTT8=
EXTT9=
EXTT10=
EXTT11=
EXTT12=
EXTT13=
EXTT14=
EXTT15=
EXTT16=
EXTT17=
PLAYORDER=
